<?xml version="1.0" encoding="utf-8"?>
<!-- Generator: Adobe Illustrator 21.0.1, SVG Export Plug-In . SVG Version: 6.00 Build 0)  -->
<svg version="1.1" id="Capa_1" xmlns="http://www.w3.org/2000/svg" xmlns:xlink="http://www.w3.org/1999/xlink" x="0px" y="0px"
	 viewBox="0 0 523.4 97.1" style="enable-background:new 0 0 523.4 97.1;" xml:space="preserve">
<style type="text/css">
	.st0{fill:#794192;}
	.st1{fill:#EAEAEA;}
</style>
<path class="st0" d="M73.2,27.2v68H52.8v-6.4c-4.5,5.2-11.1,8.3-20.3,8.3C14.7,97.1,0,81.4,0,61.2s14.7-35.9,32.5-35.9
	c9.1,0,15.8,3.1,20.3,8.3v-6.4H73.2z M52.8,61.2c0-10.2-6.8-16.6-16.2-16.6S20.4,51,20.4,61.2c0,10.2,6.8,16.6,16.2,16.6
	S52.8,71.4,52.8,61.2z"/>
<path class="st0" d="M122.9,27.2v19.6c-8.1,0-20.4,4.5-20.4,21.7v26.7H82.1v-68h20.4v10.1C107.1,27.9,114.3,27.2,122.9,27.2z"/>
<path class="st1" d="M445.8,27.2v19.6c-8.1,0-20.4,4.5-20.4,21.7v26.7H405v-68h20.4v10.1C430,27.9,437.2,27.2,445.8,27.2z"/>
<path class="st0" d="M160.3,46.8v24.1c0,5.8,5,6.4,14,5.8v18.5c-26.7,2.7-34.4-5.3-34.4-24.3V46.8h-10.6V27.2h10.6V14.3l20.4-6.1v19
	h14v19.6H160.3z"/>
<path class="st1" d="M179.1,61.2c0-20.3,15.4-35.9,36-35.9c13.2,0,24.9,6.9,30.7,17.4L228,53c-2.3-4.8-7.2-7.6-13.2-7.6
	c-8.8,0-15.4,6.4-15.4,15.8c0,9.4,6.5,15.8,15.4,15.8c6,0,11-2.9,13.2-7.6l17.8,10.2c-5.8,10.6-17.4,17.5-30.7,17.5
	C194.5,97.1,179.1,81.4,179.1,61.2z"/>
<path class="st1" d="M317.3,53.4v41.7h-20.4V56.4c0-8.4-5.3-12.4-11.8-12.4c-7.5,0-12.6,4.4-12.6,14v37.1H252V0h20.4v33.6
	c3.7-5,10.5-8.3,19.4-8.3C305.6,25.3,317.3,35.1,317.3,53.4z"/>
<path class="st1" d="M396,27.2v68h-20.4v-6.4c-4.5,5.2-11.1,8.3-20.3,8.3c-17.8,0-32.5-15.6-32.5-35.9s14.7-35.9,32.5-35.9
	c9.1,0,15.8,3.1,20.3,8.3v-6.4H396z M375.7,61.2c0-10.2-6.8-16.6-16.2-16.6s-16.2,6.4-16.2,16.6c0,10.2,6.8,16.6,16.2,16.6
	S375.7,71.4,375.7,61.2z"/>
<path class="st1" d="M483.2,46.8v24.1c0,5.8,5,6.4,14,5.8v18.5c-26.7,2.7-34.4-5.3-34.4-24.3V46.8h-10.9V27.2h10.9V14.3l20.4-6.1v19
	h14v19.6H483.2z"/>
<rect x="504.9" y="76.6" class="st1" width="18.5" height="19"/>
</svg>
